Genre : Comedy

Plot : When the sexually ambiguous Trojan Prince Orlando tries to win his father's approval by bringing the luscious Ellen of Greece back home to Troy, the jilted King Erotic threatens revenge Now General Awesomest Maximus must put aside his slacker ways and face off against Erotic's million-man Greek army with only 300 Trojans. Or was that 301? Dude, it's the Gods... don't

Infomation
Genre:Comedy
Language:English
SourceVD

Format : Matroska
File size : 729 MiB
Duration : 1h 27mn
Overall bit rate : 1 169 Kbps


Video
Format settings, CABAC : Yes
Format settings, ReFrames : 4 frames
Format settings, GOP : M=4, N=6
Codec ID : V_MPEG4/ISO/AVC
Duration : 1h 27mn
Bit rate : 789 Kbps
Width : 720 pixels
Height : 384 pixels
Display aspect ratio : 1.875
Frame rate mode : Variable
Frame rate : 25.000 fps
Color space : YUV
Chroma subsampling : 4:2:0
Bit depth : 8 bits
Scan type : Progressive
Bits/(Pixel*Frame) : 0.114
Stream size : 475 MiB (65%)
Writing library : x264

Audio
ID : 2
Format : AC-3
Format/Info : Audio Coding 3
Mode extension : CM (complete main)
Codec ID : A_AC3
Duration : 1h 27mn
Bit rate mode : Constant
Bit rate : 384 Kbps
Channel(s) : 6 channels
Channel positions : Front: L C R, Side: L R, LFE
Sampling rate : 48.0 KHz
Bit depth : 16 bits
Video delay : -1mn 5s
Stream size : 240 MiB (33%)
Language : English
 
http://www.imdb.com/title/tt1059887/